<?xml version="1.0" encoding="UTF-8"?>
<svg id="_32_head" data-name="32_head" xmlns="http://www.w3.org/2000/svg" viewBox="0 0 32 32">
  <defs>
    <style>
      .cls-1 {
        fill: #ffdcd1;
      }

      .cls-2 {
        fill: #ff4b54;
      }

      .cls-3 {
        fill: #fff;
      }

      .cls-4 {
        fill: #333;
      }

      .cls-5 {
        fill: #191919;
      }
    </style>
  </defs>
  <g id="head">
    <g id="hair">
      <g id="_3" data-name="3">
        <g>
          <path class="cls-1" d="M4,11C1.43,7.14,2.16,3.7,3.02,1.73c.34-.79,1.44-.83,1.82-.06l2.17,4.33v4l-3,1Z"/>
          <path class="cls-4" d="M4,11.5c-.16,0-.32-.08-.42-.22C.82,7.13,1.75,3.39,2.56,1.53c.24-.55,.76-.9,1.35-.92,.63-.02,1.11,.3,1.38,.83l2.17,4.33c.04,.07,.05,.15,.05,.22v4c0,.22-.14,.41-.34,.47l-3,1c-.05,.02-.11,.03-.16,.03Zm-.05-9.88h-.01c-.2,0-.38,.12-.46,.31-.86,1.98-1.4,5.03,.74,8.47l2.29-.76v-3.52L4.39,1.89c-.12-.25-.34-.28-.44-.28Z"/>
        </g>
        <path class="cls-4" d="M6,8.52c-.18,0-.36-.1-.45-.28L3.55,4.22c-.12-.25-.02-.55,.22-.67,.24-.12,.55-.02,.67,.23l2,4.02c.12,.25,.02,.55-.22,.67-.07,.04-.15,.05-.22,.05Z"/>
      </g>
      <g id="_2" data-name="2">
        <g>
          <path class="cls-1" d="M28,11c2.57-3.86,1.84-7.3,.98-9.27-.34-.79-1.44-.83-1.82-.06l-2.17,4.33v4s3,1,3,1Z"/>
          <path class="cls-4" d="M28,11.5c-.05,0-.11,0-.16-.03l-3-1c-.2-.07-.34-.26-.34-.47V6c0-.08,.02-.15,.05-.22l2.17-4.33c.26-.53,.76-.85,1.38-.83,.59,.02,1.11,.37,1.35,.92,.8,1.86,1.74,5.59-1.03,9.74-.09,.14-.25,.22-.42,.22Zm-2.5-1.86l2.29,.76c2.14-3.44,1.59-6.49,.74-8.47-.08-.19-.25-.31-.46-.31-.09,0-.33,.02-.46,.28l-2.11,4.23v3.52Z"/>
        </g>
        <path class="cls-4" d="M26,8.52c-.08,0-.15-.02-.22-.05-.25-.12-.35-.42-.22-.67l2-4.02c.12-.25,.42-.35,.67-.23,.25,.12,.35,.42,.22,.67l-2,4.02c-.09,.18-.26,.28-.45,.28Z"/>
      </g>
      <g id="_1" data-name="1">
        <path class="cls-3" d="M29.22,17c.48-.53,.78-1.23,.78-2,0-1.07-.56-2-1.4-2.53,.5-.89,.55-2.02,0-2.97-.6-1.03-1.71-1.56-2.82-1.48,.45-1.09,.23-2.38-.65-3.26-.64-.64-1.5-.92-2.34-.86-.44-1.11-1.52-1.9-2.79-1.9-.54,0-1.03,.15-1.47,.4-.53-.84-1.46-1.4-2.53-1.4s-2,.56-2.53,1.4c-.44-.25-.93-.4-1.47-.4-1.27,0-2.35,.79-2.79,1.9-.84-.06-1.7,.22-2.34,.86-.88,.88-1.32,2.18-.88,3.26-1.11-.08-2,.45-2.6,1.48-.55,.95-.51,2.08,0,2.97-.84,.53-1.4,1.46-1.4,2.53,0,.77,.3,1.47,.78,2-.48,.53-.78,1.23-.78,2s.3,1.47,.78,2c-.48,.53-.78,1.23-.78,2s.3,1.47,.78,2c-.48,.53-.78,1.23-.78,2,0,1.66,1.34,3,3,3H27c1.66,0,3-1.34,3-3,0-.77-.3-1.47-.78-2,.48-.53,.78-1.23,.78-2s-.3-1.47-.78-2c.48-.53,.78-1.23,.78-2s-.3-1.47-.78-2Z"/>
        <path class="cls-4" d="M16,2c.68,0,1.31,.35,1.69,.94,.19,.3,.51,.46,.85,.46,.17,0,.34-.04,.49-.13,.32-.18,.64-.27,.98-.27,.82,0,1.55,.5,1.86,1.27,.15,.38,.52,.63,.93,.63,.02,0,.05,0,.07,0,.05,0,.1,0,.15,0,.54,0,1.04,.2,1.41,.57,.57,.57,.74,1.43,.44,2.17-.13,.32-.09,.69,.12,.97,.19,.26,.49,.41,.81,.41,.02,0,.05,0,.07,0,.05,0,.1,0,.15,0,.73,0,1.37,.37,1.73,.99,.35,.61,.35,1.35,0,1.98-.26,.46-.11,1.05,.34,1.34,.59,.37,.93,1,.93,1.68,0,.62-.28,1.07-.52,1.33-.34,.38-.34,.96,0,1.34,.24,.26,.52,.71,.52,1.33s-.28,1.07-.52,1.33c-.34,.38-.34,.96,0,1.34,.24,.26,.52,.71,.52,1.33s-.28,1.07-.52,1.33c-.34,.38-.34,.96,0,1.34,.24,.26,.52,.71,.52,1.33,0,1.1-.9,2-2,2H5c-1.1,0-2-.9-2-2,0-.62,.28-1.07,.52-1.33,.34-.38,.34-.96,0-1.34-.24-.26-.52-.71-.52-1.33s.28-1.07,.52-1.33c.34-.38,.34-.96,0-1.34-.24-.26-.52-.71-.52-1.33s.28-1.07,.52-1.33c.34-.38,.34-.96,0-1.34-.24-.26-.52-.71-.52-1.33,0-.68,.35-1.31,.93-1.68,.45-.29,.6-.87,.34-1.34-.35-.63-.35-1.37,0-1.98,.38-.67,.88-.99,1.51-.99,.05,0,.1,0,.15,0,.02,0,.05,0,.07,0,.32,0,.62-.15,.81-.41,.2-.28,.25-.65,.12-.97-.26-.64,0-1.52,.66-2.17,.37-.37,.87-.57,1.41-.57,.05,0,.1,0,.15,0,.02,0,.05,0,.07,0,.41,0,.78-.25,.93-.63,.3-.77,1.03-1.27,1.86-1.27,.33,0,.66,.09,.98,.27,.16,.09,.33,.13,.49,.13,.33,0,.66-.17,.85-.46,.37-.59,1-.94,1.69-.94m0-1c-1.07,0-2,.56-2.53,1.4-.44-.25-.93-.4-1.47-.4-1.27,0-2.35,.79-2.79,1.9-.07,0-.15,0-.22,0-.77,0-1.53,.28-2.11,.87-.88,.88-1.32,2.18-.88,3.26-.08,0-.15,0-.22,0-1.01,0-1.82,.53-2.37,1.49-.55,.95-.51,2.08,0,2.97-.84,.53-1.4,1.46-1.4,2.53,0,.77,.3,1.47,.78,2-.48,.53-.78,1.23-.78,2s.3,1.47,.78,2c-.48,.53-.78,1.23-.78,2s.3,1.47,.78,2c-.48,.53-.78,1.23-.78,2,0,1.66,1.34,3,3,3H27c1.66,0,3-1.34,3-3,0-.77-.3-1.47-.78-2,.48-.53,.78-1.23,.78-2s-.3-1.47-.78-2c.48-.53,.78-1.23,.78-2s-.3-1.47-.78-2c.48-.53,.78-1.23,.78-2,0-1.07-.56-2-1.4-2.53,.5-.89,.55-2.02,0-2.97-.55-.96-1.56-1.49-2.6-1.49-.08,0-.15,0-.23,0,.45-1.09,.23-2.38-.65-3.26-.58-.58-1.35-.87-2.11-.87-.07,0-.15,0-.22,0-.44-1.11-1.52-1.9-2.79-1.9-.54,0-1.03,.15-1.47,.4-.53-.84-1.46-1.4-2.53-1.4h0Z"/>
      </g>
    </g>
    <g id="face">
      <g id="_2-2" data-name="2">
        <circle class="cls-1" cx="16" cy="18" r="3"/>
        <circle class="cls-1" cx="16" cy="21" r="5"/>
      </g>
      <g id="_1-2" data-name="1">
        <g id="eyes">
          <circle class="cls-5" cx="9.5" cy="16.5" r="1.5"/>
          <path class="cls-5" d="M23.3,15.23l-2.2,.73c-.06,.17-.1,.35-.1,.53,0,.83,.67,1.5,1.5,1.5s1.5-.67,1.5-1.5c0-.53-.28-1-.7-1.27Z"/>
        </g>
        <path id="wool" class="cls-4" d="M17,13.5c-1.17,0-1.83-.57-2.18-1.22-.21,.13-.49,.22-.82,.22-1.1,0-1.5-.9-1.5-1.5,0-.28,.22-.5,.5-.5s.5,.22,.5,.5c0,.22,.1,.5,.5,.5s.49-.27,.5-.5c0-.27,.23-.5,.5-.5s.49,.22,.5,.49h0c0,.26,.09,1.51,1.5,1.51s1.5-1.25,1.5-1.5c0-.27,.23-.5,.5-.5h0c.28,0,.5,.22,.5,.5,0,.86-.52,2.5-2.5,2.5Z"/>
        <g id="mouth">
          <path class="cls-4" d="M16,19.56l-2.22-1.11c-.25-.12-.35-.42-.22-.67,.12-.25,.42-.35,.67-.22l1.78,.89,1.78-.89c.25-.12,.55-.02,.67,.22,.12,.25,.02,.55-.22,.67l-2.22,1.11Z"/>
          <path class="cls-4" d="M16,22.5c-2.18,0-3.31-1.1-3.35-1.15-.2-.2-.2-.51,0-.71,.2-.19,.51-.19,.7,0h0s.9,.86,2.65,.86,2.61-.82,2.65-.86c.2-.19,.51-.19,.71,0,.19,.2,.19,.51,0,.7-.05,.05-1.17,1.15-3.35,1.15Z"/>
          <path class="cls-4" d="M16,22.5c-.28,0-.5-.22-.5-.5v-3c0-.28,.22-.5,.5-.5s.5,.22,.5,.5v3c0,.28-.22,.5-.5,.5Z"/>
        </g>
      </g>
    </g>
    <g id="scarf">
      <g id="_2-3" data-name="2">
        <rect class="cls-2" x="3" y="29" width="26" height="3" rx="1" ry="1"/>
        <path class="cls-4" d="M28,30v1H4v-1H28m0-1H4c-.55,0-1,.45-1,1v1c0,.55,.45,1,1,1H28c.55,0,1-.45,1-1v-1c0-.55-.45-1-1-1h0Z"/>
      </g>
      <g id="_1-3" data-name="1">
        <g>
          <path class="cls-2" d="M23.42,28.58c1.31,1.31,3.41,1.42,4.05,1.42,.11,0,.19-.08,.19-.19,0-.64-.11-2.74-1.42-4.05s-3.41-1.42-4.05-1.42c-.11,0-.19,.08-.19,.19,0,.64,.11,2.74,1.42,4.05Z"/>
          <path class="cls-4" d="M23.06,25.4c.75,.1,1.79,.37,2.48,1.06,.69,.69,.96,1.73,1.06,2.48-.75-.1-1.79-.37-2.48-1.06-.69-.69-.96-1.73-1.06-2.48m-.87-1.06c-.11,0-.19,.08-.19,.19,0,.64,.11,2.74,1.42,4.05,1.31,1.31,3.41,1.42,4.05,1.42,.11,0,.19-.08,.19-.19,0-.64-.11-2.74-1.42-4.05-1.31-1.31-3.41-1.42-4.05-1.42h0Z"/>
        </g>
        <g>
          <g>
            <path class="cls-2" d="M31.31,27.35c-1.14,1.98-3.63,2.75-4.32,2.93-.11,.03-.21-.03-.24-.14-.19-.69-.76-3.23,.38-5.21s3.63-2.75,4.32-2.93c.11-.03,.21,.03,.24,.14,.19,.69,.76,3.23-.38,5.21Z"/>
            <path class="cls-4" d="M31.7,22.97h0m-.81,.26c.15,.94,.23,2.44-.45,3.61-.68,1.18-2.01,1.86-2.9,2.2-.15-.94-.23-2.44,.45-3.61,.68-1.18,2.01-1.86,2.9-2.2m.61-1.24s-.04,0-.05,0c-.7,.18-3.18,.95-4.32,2.93-1.14,1.98-.57,4.51-.38,5.21,.02,.09,.1,.14,.18,.14,.02,0,.04,0,.05,0,.7-.18,3.18-.95,4.32-2.93,1.14-1.98,.57-4.51,.38-5.21-.02-.09-.1-.14-.18-.14h0Z"/>
          </g>
          <g>
            <line class="cls-2" x1="27" y1="30" x2="29.22" y2="26.14"/>
            <path class="cls-4" d="M27,30.5c-.08,0-.17-.02-.25-.07-.24-.14-.32-.44-.18-.68l2.22-3.86c.14-.24,.45-.32,.68-.18,.24,.14,.32,.44,.18,.68l-2.22,3.86c-.09,.16-.26,.25-.43,.25Z"/>
          </g>
        </g>
        <g>
          <circle class="cls-2" cx="27" cy="30" r="2"/>
          <path class="cls-4" d="M27,29c.55,0,1,.45,1,1s-.45,1-1,1-1-.45-1-1,.45-1,1-1m0-1c-1.1,0-2,.9-2,2s.9,2,2,2,2-.9,2-2-.9-2-2-2h0Z"/>
        </g>
      </g>
    </g>
  </g>
</svg>