<?xml version="1.0" encoding="UTF-8"?>
<svg id="_32_face" data-name="32_face" xmlns="http://www.w3.org/2000/svg" viewBox="0 0 32 32">
  <defs>
    <style>
      .cls-1 {
        fill: #ffdcd1;
      }

      .cls-2 {
        fill: #fff;
      }

      .cls-3 {
        fill: #333;
      }

      .cls-4 {
        fill: #191919;
      }
    </style>
  </defs>
  <g id="face">
    <g>
      <path id="head" class="cls-2" d="M32,16c0-1.63-.98-3.03-2.38-3.65,.9-1.24,1.05-2.94,.23-4.35-.82-1.41-2.36-2.13-3.88-1.97,.16-1.52-.56-3.07-1.97-3.88-1.41-.82-3.11-.67-4.35,.23-.62-1.4-2.02-2.38-3.65-2.38s-3.03,.98-3.65,2.38c-1.24-.9-2.94-1.05-4.35-.23-1.41,.82-2.13,2.36-1.97,3.88-1.52-.16-3.07,.56-3.88,1.97-.82,1.41-.67,3.11,.23,4.35-1.4,.62-2.38,2.02-2.38,3.65s.98,3.03,2.38,3.65c-.9,1.24-1.05,2.94-.23,4.35,.82,1.41,2.36,2.13,3.88,1.97-.16,1.52,.56,3.07,1.97,3.88s3.11,.67,4.35-.23c.62,1.4,2.02,2.38,3.65,2.38s3.03-.98,3.65-2.38c1.24,.9,2.94,1.05,4.35,.23s2.13-2.36,1.97-3.88c1.52,.16,3.07-.56,3.88-1.97,.82-1.41,.67-3.11-.23-4.35,1.4-.62,2.38-2.02,2.38-3.65Z"/>
      <path id="head-2" data-name="head" class="cls-3" d="M16,1c1.18,0,2.25,.7,2.74,1.78,.12,.28,.36,.48,.65,.56,.09,.02,.17,.03,.26,.03,.21,0,.42-.07,.59-.19,.51-.37,1.14-.58,1.77-.58,.52,0,1.03,.14,1.49,.4,1.02,.59,1.6,1.73,1.48,2.91-.03,.3,.07,.6,.29,.81,.19,.19,.44,.29,.71,.29,.03,0,.07,0,.1,0,.1-.01,.21-.02,.31-.02,1.07,0,2.07,.57,2.6,1.49,.59,1.02,.52,2.3-.18,3.26-.18,.24-.23,.56-.16,.85,.08,.29,.28,.53,.56,.65,1.08,.48,1.78,1.56,1.78,2.74s-.7,2.25-1.78,2.74c-.28,.12-.48,.36-.56,.65-.08,.29-.02,.6,.16,.85,.7,.96,.77,2.24,.18,3.26-.53,.92-1.53,1.49-2.6,1.49-.1,0-.21,0-.31-.02-.03,0-.07,0-.1,0-.26,0-.52,.1-.71,.29-.21,.21-.32,.51-.29,.81,.12,1.18-.46,2.32-1.48,2.91-.45,.26-.97,.4-1.49,.4-.63,0-1.26-.2-1.77-.58-.17-.13-.38-.19-.59-.19-.09,0-.17,.01-.26,.03-.29,.08-.53,.28-.65,.56-.48,1.08-1.56,1.78-2.74,1.78s-2.25-.7-2.74-1.78c-.12-.28-.36-.48-.65-.56-.09-.02-.17-.03-.26-.03-.21,0-.42,.07-.59,.19-.51,.37-1.14,.58-1.77,.58-.52,0-1.03-.14-1.49-.4-1.02-.59-1.6-1.73-1.48-2.91,.03-.3-.07-.6-.29-.81-.19-.19-.44-.29-.71-.29-.03,0-.07,0-.1,0-.1,.01-.21,.02-.31,.02-1.07,0-2.07-.57-2.6-1.49-.59-1.02-.52-2.3,.18-3.26,.18-.24,.23-.56,.16-.85-.08-.29-.28-.53-.56-.65-1.08-.48-1.78-1.56-1.78-2.74s.7-2.25,1.78-2.74c.28-.12,.48-.36,.56-.65,.08-.29,.02-.6-.16-.85-.7-.96-.77-2.24-.18-3.26,.53-.92,1.53-1.49,2.6-1.49,.1,0,.21,0,.31,.02,.03,0,.07,0,.1,0,.26,0,.52-.1,.71-.29,.21-.21,.32-.51,.29-.81-.12-1.18,.46-2.32,1.48-2.91,.45-.26,.97-.4,1.49-.4,.63,0,1.26,.21,1.77,.58,.17,.13,.38,.19,.59,.19,.09,0,.17-.01,.26-.03,.29-.08,.53-.28,.65-.56,.48-1.08,1.56-1.78,2.74-1.78m0-1c-1.63,0-3.03,.98-3.65,2.38-.69-.5-1.52-.77-2.36-.77-.68,0-1.36,.17-1.99,.53-1.41,.82-2.13,2.36-1.97,3.88-.14-.01-.28-.02-.42-.02-1.38,0-2.72,.71-3.46,1.99-.82,1.41-.67,3.11,.23,4.35-1.4,.62-2.38,2.02-2.38,3.65s.98,3.03,2.38,3.65c-.9,1.24-1.05,2.94-.23,4.35,.74,1.28,2.08,1.99,3.46,1.99,.14,0,.28,0,.42-.02-.16,1.52,.56,3.07,1.97,3.88,.63,.36,1.31,.53,1.99,.53,.84,0,1.67-.27,2.36-.77,.62,1.4,2.02,2.38,3.65,2.38s3.03-.98,3.65-2.38c.69,.5,1.52,.77,2.36,.77,.68,0,1.36-.17,1.99-.53,1.41-.82,2.13-2.36,1.97-3.88,.14,.01,.28,.02,.42,.02,1.38,0,2.72-.71,3.46-1.99,.82-1.41,.67-3.11-.23-4.35,1.4-.62,2.38-2.02,2.38-3.65s-.98-3.03-2.38-3.65c.9-1.24,1.05-2.94,.23-4.35-.74-1.28-2.08-1.99-3.46-1.99-.14,0-.28,0-.42,.02,.16-1.52-.56-3.07-1.97-3.88-.63-.36-1.31-.53-1.99-.53-.84,0-1.67,.27-2.36,.77-.62-1.4-2.02-2.38-3.65-2.38h0Z"/>
    </g>
    <g id="face-2" data-name="face">
      <g id="_2" data-name="2">
        <circle class="cls-1" cx="16" cy="17.41" r="3.38"/>
        <circle class="cls-1" cx="16" cy="20.78" r="5.62"/>
      </g>
      <g id="_1" data-name="1">
        <g>
          <circle class="cls-4" cx="8.69" cy="15.72" r="1.69"/>
          <path class="cls-4" d="M24.21,14.29l-2.47,.82c-.07,.19-.12,.39-.12,.6,0,.93,.76,1.69,1.69,1.69s1.69-.76,1.69-1.69c0-.6-.32-1.13-.79-1.42Z"/>
        </g>
        <path class="cls-3" d="M17.12,12.34c-1.32,0-2.06-.64-2.45-1.37-.24,.15-.55,.25-.93,.25-1.24,0-1.69-1.01-1.69-1.69,0-.31,.25-.56,.56-.56s.56,.25,.56,.56c0,.25,.11,.56,.56,.56s.56-.31,.56-.57c0-.31,.25-.56,.56-.56s.56,.24,.56,.55h0c0,.29,.1,1.7,1.69,1.7s1.68-1.41,1.69-1.69c0-.31,.25-.56,.56-.56h0c.31,0,.56,.25,.56,.56,0,.97-.59,2.81-2.81,2.81Z"/>
        <g>
          <path class="cls-3" d="M16,19.16l-2.5-1.25c-.28-.14-.39-.48-.25-.75,.14-.28,.48-.39,.75-.25l2,1,2-1c.28-.14,.61-.03,.75,.25,.14,.28,.03,.62-.25,.75l-2.5,1.25Z"/>
          <path class="cls-3" d="M16,22.47c-2.45,0-3.72-1.24-3.77-1.29-.22-.22-.22-.58,0-.8,.22-.22,.57-.22,.79,0h0s1.02,.96,2.98,.96,2.94-.92,2.98-.96c.22-.21,.58-.21,.79,0,.22,.22,.22,.57,0,.79-.05,.05-1.32,1.29-3.77,1.29Z"/>
          <path class="cls-3" d="M16,22.47c-.31,0-.56-.25-.56-.56v-3.38c0-.31,.25-.56,.56-.56s.56,.25,.56,.56v3.38c0,.31-.25,.56-.56,.56Z"/>
        </g>
      </g>
    </g>
  </g>
</svg>